<svg width="9" height="9" viewBox="0 0 9 9" fill="none" xmlns="http://www.w3.org/2000/svg">
<path d="M9 3.99956H6.36827L8.64747 2.68366L8.14695 1.81647L5.86774 3.13236L7.18335 0.853341L6.31615 0.352517L5.00055 2.63154V0H3.99944V2.63179L2.68333 0.352517L1.81642 0.85309L3.13227 3.13211L0.853066 1.81647L0.352507 2.68341L2.63172 3.9993H0V5.00045H2.63146L0.352507 6.31634L0.853066 7.18354L3.13202 5.86789L1.81617 8.1469L2.68333 8.64747L3.99919 6.36822V9H5.00031V6.36846L6.31592 8.64747L7.18306 8.1469L5.86722 5.86765L8.14643 7.18354L8.647 6.31634L6.36803 5.00069H8.99948V3.99956H9ZM4.5 5.86157C3.74514 5.86157 3.13328 5.24974 3.13328 4.49484C3.13328 3.73995 3.74514 3.12808 4.5 3.12808C5.25487 3.12808 5.8667 3.73995 5.8667 4.49484C5.8667 5.24974 5.25487 5.86157 4.5 5.86157Z" fill="#E6E5FF"/>
</svg>
