<svg width="8" height="9" viewBox="0 0 8 9" fill="none" xmlns="http://www.w3.org/2000/svg">
<path d="M3.45399 1.76139L2.03138 0.908873L0.608776 0.0564072C0.547077 0.0194478 0.477088 -5.6453e-06 0.405851 1.22886e-09C0.334613 5.64776e-06 0.264632 0.0194698 0.202938 0.056439C0.141245 0.0934081 0.0900122 0.14658 0.054389 0.210609C0.0187658 0.274639 1.03514e-05 0.34727 1.3028e-09 0.421208V3.83129C-5.70652e-06 3.90523 0.0187438 3.97788 0.0543632 4.04192C0.0899825 4.10595 0.141214 4.15913 0.202912 4.1961C0.264611 4.23308 0.334601 4.25254 0.405844 4.25254C0.477088 4.25254 0.54708 4.23307 0.608776 4.19609L2.03138 3.34363L3.45399 2.4911C3.51571 2.45414 3.56697 2.40097 3.60261 2.33692C3.63826 2.27287 3.65702 2.20021 3.65702 2.12625C3.65702 2.05228 3.63826 1.97962 3.60261 1.91558C3.56697 1.85153 3.51571 1.79835 3.45399 1.76139V1.76139Z" fill="#FFEDF1"/>
<path d="M3.45398 6.50889L2.03138 5.65642L0.608718 4.80395C0.54703 4.76698 0.47705 4.7475 0.405812 4.7475C0.334574 4.74749 0.264588 4.76695 0.202893 4.80392C0.141199 4.84089 0.0899733 4.89406 0.0543568 4.95809C0.0187402 5.02213 -7.14141e-06 5.09476 2.04069e-09 5.1687V8.57878C-3.51893e-07 8.65272 0.0187466 8.72535 0.0543632 8.78938C0.0899798 8.85342 0.141209 8.90659 0.2029 8.94356C0.26459 8.98053 0.33457 8.99999 0.405806 9C0.477042 9 0.547023 8.98055 0.608718 8.94359L2.03138 8.09112L3.45398 7.23865C3.51571 7.20169 3.56697 7.1485 3.60261 7.08445C3.63825 7.0204 3.65702 6.94773 3.65702 6.87377C3.65702 6.7998 3.63825 6.72714 3.60261 6.66309C3.56697 6.59903 3.51571 6.54585 3.45398 6.50889Z" fill="#FFEDF1"/>
<path d="M7.51124 4.13518L6.08863 3.28266L4.66603 2.4302C4.60433 2.39322 4.53435 2.37375 4.4631 2.37375C4.39186 2.37375 4.32187 2.39321 4.26017 2.43018C4.19847 2.46715 4.14723 2.52033 4.11161 2.58437C4.07599 2.64841 4.05725 2.72105 4.05725 2.795V6.20508C4.05726 6.27901 4.07602 6.35165 4.11165 6.41568C4.14727 6.47971 4.1985 6.53288 4.2602 6.56985C4.32189 6.60682 4.39187 6.62628 4.46311 6.62629C4.53435 6.62629 4.60433 6.60684 4.66603 6.56988L6.08863 5.71736L7.51124 4.86489C7.57297 4.82793 7.62423 4.77476 7.65987 4.71071C7.69551 4.64666 7.71427 4.574 7.71427 4.50004C7.71427 4.42607 7.69551 4.35341 7.65987 4.28937C7.62423 4.22532 7.57297 4.17214 7.51124 4.13518V4.13518Z" fill="#FFEDF1"/>
</svg>
